<svg width="64" height="64" viewBox="0 0 64 64" fill="none" xmlns="http://www.w3.org/2000/svg">
<g clip-path="url(#clip0_18012_183)">
<path d="M32 64C49.6731 64 64 49.6731 64 32C64 14.3269 49.6731 0 32 0C14.3269 0 0 14.3269 0 32C0 49.6731 14.3269 64 32 64Z" fill="#0068FF"/>
<path d="M44.2233 30.4122L43.3965 30.082C39.5109 38.8133 24.0533 33.5051 23.1232 36.1026C22.9681 37.8571 31.5646 36.4362 37.7102 36.7336C39.5842 36.8242 40.524 38.237 39.7282 40.5399L41.2956 40.5447C43.1037 34.9156 48.874 37.7884 49.1151 35.9306C48.719 34.7092 42.4835 35.9306 44.2233 30.4122Z" fill="#0068FF"/>
<path d="M40.1719 39.5745C40.4198 38.7488 40.3372 37.9232 39.9239 37.4277C39.5104 36.9323 38.9317 36.6021 38.1876 36.5195L23.8015 36.3543C23.7189 36.3543 23.6362 36.2717 23.5535 36.2717C23.4709 36.1892 23.4709 36.1066 23.5535 36.0241C23.6362 35.859 23.7189 35.7763 23.8842 35.7763L38.3529 35.6112C40.0892 35.5286 41.9082 34.1249 42.5694 32.4736L43.3964 30.3269C43.3964 30.2442 43.479 30.1616 43.3964 30.0791C42.4868 25.8681 38.6837 22.7305 34.219 22.7305C30.0851 22.7305 26.5299 25.3727 25.2897 29.0883C24.463 28.5103 23.4709 28.18 22.3133 28.2627C20.329 28.4278 18.7582 30.0791 18.5101 32.0607C18.4274 32.5562 18.5101 33.0517 18.5929 33.5469C15.3684 33.6295 12.7227 36.2717 12.7227 39.5745C12.7227 39.9047 12.7227 40.1525 12.8053 40.4827C12.8053 40.6479 12.9706 40.7305 13.0535 40.7305H39.5931C39.7584 40.7305 39.9239 40.6479 39.9239 40.4827L40.1719 39.5745Z" fill="white"/>
<path d="M44.7185 30.3281H44.3051C44.2224 30.3281 44.1397 30.4107 44.0571 30.4932L43.4783 32.4749C43.2303 33.3005 43.313 34.1263 43.7264 34.6216C44.1397 35.1171 44.7185 35.4473 45.4626 35.53L48.5218 35.6951C48.6044 35.6951 48.6871 35.7776 48.7698 35.7776C48.8524 35.8602 48.8524 35.9427 48.7698 36.0253C48.6871 36.1905 48.6044 36.2731 48.439 36.2731L45.2973 36.4382C43.561 36.5207 41.7421 37.9244 41.0807 39.5757L40.9152 40.319C40.8326 40.4015 40.9152 40.5666 41.0807 40.5666H51.9943C52.1596 40.5666 52.2422 40.4841 52.2422 40.319C52.4076 39.6584 52.5729 38.9153 52.5729 38.172C52.5729 33.8785 49.0177 30.3281 44.7185 30.3281Z" fill="white"/>
</g>
<defs>
<clipPath id="clip0_18012_183">
<rect width="64" height="64" fill="white"/>
</clipPath>
</defs>
</svg>
