<svg width="64" height="64" viewBox="0 0 64 64" fill="none" xmlns="http://www.w3.org/2000/svg">
<g clip-path="url(#clip0_18012_206)">
<path d="M32 64C49.6731 64 64 49.6731 64 32C64 14.3269 49.6731 0 32 0C14.3269 0 0 14.3269 0 32C0 49.6731 14.3269 64 32 64Z" fill="#0068FF"/>
<path d="M36.4531 37.4083L34.0673 33.75L31.3633 37.4083L34.0673 40.2714L36.4531 37.4083Z" fill="white"/>
<path fill-rule="evenodd" clip-rule="evenodd" d="M28.6583 29.7106C28.1811 29.9546 27.6404 30.0923 27.0676 30.0923C25.135 30.0923 23.5684 28.5256 23.5684 26.593C23.5684 25.6052 23.9776 24.713 24.6359 24.0768C24.0038 23.8525 23.3234 23.7305 22.6145 23.7305C19.2764 23.7305 16.5703 26.4365 16.5703 29.7747C16.5703 33.1128 19.2764 35.8188 22.6145 35.8188C25.9526 35.8188 28.6587 33.1128 28.6587 29.7747C28.6587 29.7533 28.6586 29.732 28.6583 29.7106Z" fill="white"/>
<path d="M19.7529 31.0449C20.4557 31.0449 21.0254 30.4752 21.0254 29.7725C21.0254 29.0697 20.4557 28.5 19.7529 28.5C19.0502 28.5 18.4805 29.0697 18.4805 29.7725C18.4805 30.4752 19.0502 31.0449 19.7529 31.0449Z" fill="#0068FF"/>
<path fill-rule="evenodd" clip-rule="evenodd" d="M39.6356 31.6853C41.129 31.6853 42.3396 30.4747 42.3396 28.9813C42.3396 28.243 42.0437 27.5739 41.5641 27.0859C41.9621 26.974 42.382 26.9141 42.8158 26.9141C45.3633 26.9141 47.4285 28.9792 47.4285 31.5267C47.4285 34.0742 45.3633 36.1394 42.8158 36.1394C40.2683 36.1394 38.2031 34.0742 38.2031 31.5267C38.2031 31.4437 38.2053 31.3611 38.2097 31.2792C38.6236 31.5366 39.1123 31.6853 39.6356 31.6853Z" fill="white"/>
<path d="M44.4064 33.592C45.0213 33.592 45.5198 33.0935 45.5198 32.4786C45.5198 31.8637 45.0213 31.3652 44.4064 31.3652C43.7915 31.3652 43.293 31.8637 43.293 32.4786C43.293 33.0935 43.7915 33.592 44.4064 33.592Z" fill="#0068FF"/>
</g>
<defs>
<clipPath id="clip0_18012_206">
<rect width="64" height="64" fill="white"/>
</clipPath>
</defs>
</svg>
