<svg width="64" height="64" viewBox="0 0 64 64" fill="none" xmlns="http://www.w3.org/2000/svg">
<g clip-path="url(#clip0_18012_232)">
<path d="M32 64C49.6731 64 64 49.6731 64 32C64 14.3269 49.6731 0 32 0C14.3269 0 0 14.3269 0 32C0 49.6731 14.3269 64 32 64Z" fill="#0068FF"/>
<path d="M41.3003 18.7305H29.5352V34.5882H45.4282V22.8334C45.4282 20.5848 43.5722 18.7305 41.3216 18.7305C41.3109 18.7305 41.3003 18.7305 41.3003 18.7305Z" fill="white"/>
<path d="M25.8676 18.7305H23.841C21.5903 18.7305 19.7344 20.5848 19.7344 22.8334V24.8583H25.8676V18.7305Z" fill="white"/>
<path d="M19.7227 28.5273H25.8559V34.6552H19.7227V28.5273Z" fill="white"/>
<path d="M39.3398 44.4046H41.3665C43.6171 44.4046 45.4731 42.5503 45.4731 40.3016V40.291V38.3301H39.3398V44.4046Z" fill="white"/>
<path d="M29.5352 38.3164H35.6684V44.4442H29.5352V38.3164Z" fill="white"/>
<path d="M19.7227 38.3164V40.3413C19.7227 42.5899 21.5786 44.4442 23.8292 44.4442H25.8559V38.3164H19.7227Z" fill="white"/>
</g>
<defs>
<clipPath id="clip0_18012_232">
<rect width="64" height="64" fill="white"/>
</clipPath>
</defs>
</svg>
