<svg width="64" height="64" viewBox="0 0 64 64" fill="none" xmlns="http://www.w3.org/2000/svg">
<g clip-path="url(#clip0_18012_142)">
<path d="M32 64C49.6731 64 64 49.6731 64 32C64 14.3269 49.6731 0 32 0C14.3269 0 0 14.3269 0 32C0 49.6731 14.3269 64 32 64Z" fill="#0068FF"/>
<path d="M32.2814 22.6367L29.9957 23.8951L19.3633 29.648C22.0085 42.1295 31.6137 47.3943 32.2814 47.7282C32.9235 47.3943 42.5543 42.1552 45.1739 29.648L34.5415 23.8695L32.2814 22.6367Z" fill="white"/>
<path d="M32.2835 20.3535L29.9978 21.6119L19.0059 27.5702C19.1086 28.2893 19.237 28.9827 19.3654 29.6505L29.9978 23.8977L32.2835 22.6392L34.5436 23.872L45.176 29.6505C45.3044 28.9827 45.4328 28.2893 45.5356 27.5702L34.5436 21.5863L32.2835 20.3535Z" fill="white" fill-opacity="0.7"/>
<path d="M32.282 18.1699L30.0219 19.4283L18.7988 25.515C18.8502 26.2341 18.9272 26.9275 19.0043 27.5953L29.9963 21.6113L32.282 20.3786L34.5934 21.637L45.534 27.5953C45.611 26.9275 45.7138 26.2341 45.7651 25.515L34.5163 19.4027L32.282 18.1699Z" fill="white" fill-opacity="0.5"/>
<path d="M32.2828 15.7559L18.7227 23.2037C18.7227 23.9742 18.7483 24.7446 18.7997 25.5151L30.0228 19.4284L32.2828 18.1957L34.5429 19.4284L45.766 25.5151C45.8174 24.7446 45.8174 23.9742 45.8174 23.178L32.2828 15.7559Z" fill="white" fill-opacity="0.3"/>
</g>
<defs>
<clipPath id="clip0_18012_142">
<rect width="64" height="64" fill="white"/>
</clipPath>
</defs>
</svg>
