<svg width="64" height="64" viewBox="0 0 64 64" fill="none" xmlns="http://www.w3.org/2000/svg">
<g clip-path="url(#clip0_18012_255)">
<path d="M32 64C49.6731 64 64 49.6731 64 32C64 14.3269 49.6731 0 32 0C14.3269 0 0 14.3269 0 32C0 49.6731 14.3269 64 32 64Z" fill="#0068FF"/>
<path d="M23.6775 38.8956C23.0645 38.3921 22.571 37.7585 22.233 37.0407C21.8949 36.323 21.7206 35.539 21.7227 34.7455L21.7444 20.5009C21.7442 20.468 21.7551 20.436 21.7754 20.41C21.7957 20.3841 21.8241 20.3658 21.8561 20.3581L31.4563 17.8531C32.0756 17.6896 32.7267 17.6896 33.346 17.8531L42.9369 20.3954C42.9689 20.4042 42.9971 20.4232 43.0172 20.4495C43.0374 20.4759 43.0484 20.5081 43.0486 20.5413L43.0238 34.7827C43.0241 35.5763 42.8477 36.3599 42.5074 37.0767C42.1671 37.7935 41.6715 38.4255 41.0565 38.9267L33.0326 45.4887C32.8418 45.645 32.6028 45.7305 32.3561 45.7305C32.1095 45.7305 31.8705 45.645 31.6797 45.4887L23.6775 38.8956Z" fill="white"/>
<path d="M37.6293 25.5284C37.4131 25.3683 37.1424 25.3011 36.8768 25.3416C36.6112 25.382 36.3726 25.5269 36.2134 25.7442L31.4121 32.2899L28.359 29.8361C27.9212 29.4991 27.2955 29.5756 26.9508 30.0082C26.6062 30.4408 26.669 31.0708 27.0922 31.4261L30.9688 34.541C31.1852 34.7111 31.4605 34.7866 31.7329 34.7506C32.0053 34.7146 32.2518 34.5701 32.4171 34.3497L37.8473 26.9516C38.0064 26.7338 38.0728 26.4615 38.0319 26.1946C37.991 25.9277 37.8461 25.688 37.6293 25.5284Z" fill="#0068FF"/>
</g>
<defs>
<clipPath id="clip0_18012_255">
<rect width="64" height="64" fill="white"/>
</clipPath>
</defs>
</svg>
